<svg width="73" height="25" viewBox="0 0 73 25" fill="none" xmlns="http://www.w3.org/2000/svg">
<path d="M42.3038 21.3171C43.5266 21.3171 44.7825 20.8622 45.6088 20.0173L47.3274 22.357C46.0054 23.4944 44.2207 24.1768 42.3038 24.1768C38.0734 24.1768 34.6362 20.7972 34.6362 16.6378C34.6362 12.4783 38.0734 9.09878 42.3038 9.09878C44.2207 9.09878 46.0054 9.78119 47.3274 10.9185L45.6088 13.2582C44.7825 12.4133 43.5266 11.9584 42.3038 11.9584C39.8581 11.9584 37.809 14.1031 37.809 16.6378C37.809 19.1724 39.8581 21.3171 42.3038 21.3171Z" fill="white"/>
<path d="M58.6521 9.09878C62.4198 9.09878 64.5349 11.6334 64.5349 16.2478V23.9168H61.3622V16.2478C61.3622 13.4857 60.5029 11.9584 58.0572 11.9584C56.1403 11.9584 54.4878 13.7132 54.4878 16.3778V23.9168H51.315V0H54.4878V11.1785C54.9835 10.2361 56.4377 9.09878 58.6521 9.09878Z" fill="white"/>
<path d="M70.6205 6.7591C69.2985 6.7591 68.2409 5.71923 68.2409 4.41941C68.2409 3.11958 69.2985 2.07972 70.6205 2.07972C71.9425 2.07972 73.0001 3.11958 73.0001 4.41941C73.0001 5.71923 71.9425 6.7591 70.6205 6.7591ZM69.0341 23.9168V9.35875H72.2069V23.9168H69.0341Z" fill="white"/>
<rect y="7.66899" width="33.0498" height="17.331" rx="8.6655" fill="white"/>
<ellipse cx="8.81323" cy="16.3345" rx="5.5083" ry="5.41594" stroke="#3EB6A0" stroke-width="3"/>
<ellipse cx="24.2366" cy="16.3345" rx="5.5083" ry="5.41594" stroke="#3EB6A0" stroke-width="3"/>
</svg>
